<?xml version="1.0" encoding="UTF-8"?>
<svg width="551px" height="690px" viewBox="0 0 551 690" version="1.1" xmlns="http://www.w3.org/2000/svg" xmlns:xlink="http://www.w3.org/1999/xlink">
    <!-- Generator: Sketch 41 (35326) - http://www.bohemiancoding.com/sketch -->
    <title>snapit_logo</title>
    <desc>Created with Sketch.</desc>
    <defs>
        <radialGradient cx="50.360223%" cy="-24.6367234%" fx="50.360223%" fy="-24.6367234%" r="99.5783234%" id="radialGradient-1">
            <stop stop-color="#0F27E5" offset="0%"></stop>
            <stop stop-color="#20D2D7" offset="100%"></stop>
        </radialGradient>
        <path d="M139.081572,238.421003 C146.386045,238.421003 153.705688,235.65051 159.280753,230.101973 C170.438468,218.99735 170.438468,200.992914 159.280753,189.895841 L70.2314148,101.270233 C59.0736995,90.1656101 40.9831824,90.1656101 29.8330523,101.270233 C18.6753371,112.374855 18.6753371,130.379291 29.8330523,141.476365 L118.882391,230.101973 C124.457456,235.65051 131.777099,238.421003 139.081572,238.421003 Z" id="path-2"></path>
        <filter x="-50%" y="-50%" width="200%" height="200%" filterUnits="objectBoundingBox" id="filter-3">
            <feOffset dx="0" dy="2" in="SourceAlpha" result="shadowOffsetOuter1"></feOffset>
            <feGaussianBlur stdDeviation="2" in="shadowOffsetOuter1" result="shadowBlurOuter1"></feGaussianBlur>
            <feColorMatrix values="0 0 0 0 0   0 0 0 0 0   0 0 0 0 0  0 0 0 0.5 0" type="matrix" in="shadowBlurOuter1"></feColorMatrix>
        </filter>
        <path d="M432.125195,230.101973 L521.174533,141.476365 C532.332248,130.371742 532.332248,112.367306 521.174533,101.270233 C510.016818,90.1656101 491.9263,90.1656101 480.77617,101.270233 L391.726832,189.895841 C380.569117,201.000463 380.569117,219.004899 391.726832,230.101973 C397.301897,235.65051 404.62154,238.421003 411.926013,238.421003 C419.230486,238.421003 426.55013,235.65051 432.125195,230.101973 Z" id="path-4"></path>
        <filter x="-50%" y="-50%" width="200%" height="200%" filterUnits="objectBoundingBox" id="filter-5">
            <feOffset dx="0" dy="2" in="SourceAlpha" result="shadowOffsetOuter1"></feOffset>
            <feGaussianBlur stdDeviation="2" in="shadowOffsetOuter1" result="shadowBlurOuter1"></feGaussianBlur>
            <feColorMatrix values="0 0 0 0 0   0 0 0 0 0   0 0 0 0 0  0 0 0 0.5 0" type="matrix" in="shadowBlurOuter1"></feColorMatrix>
        </filter>
        <path d="M304.057986,153.758636 L304.057986,28.4220966 C304.057986,12.727664 291.26947,0 275.5,0 C259.73053,0 246.942014,12.727664 246.942014,28.4220966 L246.942014,153.751087 C246.942014,169.44552 259.73053,182.173183 275.5,182.173183 C291.26947,182.173183 304.057986,169.453069 304.057986,153.758636 Z" id="path-6"></path>
        <filter x="-50%" y="-50%" width="200%" height="200%" filterUnits="objectBoundingBox" id="filter-7">
            <feOffset dx="0" dy="2" in="SourceAlpha" result="shadowOffsetOuter1"></feOffset>
            <feGaussianBlur stdDeviation="2" in="shadowOffsetOuter1" result="shadowBlurOuter1"></feGaussianBlur>
            <feColorMatrix values="0 0 0 0 0   0 0 0 0 0   0 0 0 0 0  0 0 0 0.5 0" type="matrix" in="shadowBlurOuter1"></feColorMatrix>
        </filter>
        <linearGradient x1="50%" y1="0%" x2="50%" y2="92.6473578%" id="linearGradient-8">
            <stop stop-color="#FD009B" offset="0%"></stop>
            <stop stop-color="#E2D2E5" offset="100%"></stop>
        </linearGradient>
    </defs>
    <g id="Page-1" stroke="none" stroke-width="1" fill="none" fill-rule="evenodd">
        <g id="Group-2">
            <g id="noun_969535_cc" transform="translate(0.000000, 10.294131)">
                <g id="Group">
                    <path d="M447.303025,294.985883 L103.696975,294.985883 C46.5734177,294.985883 0.106957186,341.231238 0.106957186,398.08298 L0.106957186,576.308021 C0.106957186,633.167313 46.5734177,679.412668 103.696975,679.412668 L447.303025,679.412668 C504.426582,679.412668 550.893043,633.167313 550.893043,576.31557 L550.893043,398.09053 C550.893043,341.238787 504.426582,294.985883 447.303025,294.985883 Z M493.769485,576.31557 C493.769485,601.816193 472.917983,622.560926 447.303025,622.560926 L103.696975,622.560926 C78.0744314,622.560926 57.2305148,601.808644 57.2305148,576.31557 L57.2305148,398.09053 C57.2305148,372.589907 78.0820165,351.845174 103.696975,351.845174 L447.303025,351.845174 C472.925569,351.845174 493.769485,372.597456 493.769485,398.09053 L493.769485,576.31557 Z" id="Shape" fill="url(#radialGradient-1)"></path>
                    <g id="Shape">
                        <use fill="black" fill-opacity="1" filter="url(#filter-3)" xlink:href="#path-2"></use>
                        <use fill="url(#radialGradient-1)" fill-rule="evenodd" xlink:href="#path-2"></use>
                    </g>
                    <g id="Shape">
                        <use fill="black" fill-opacity="1" filter="url(#filter-5)" xlink:href="#path-4"></use>
                        <use fill="url(#radialGradient-1)" fill-rule="evenodd" xlink:href="#path-4"></use>
                    </g>
                    <g id="Shape">
                        <use fill="black" fill-opacity="1" filter="url(#filter-7)" xlink:href="#path-6"></use>
                        <use fill="url(#radialGradient-1)" fill-rule="evenodd" xlink:href="#path-6"></use>
                    </g>
                    <g id="noun_671923_cc-copy" transform="translate(276.359776, 482.925850) rotate(18.000000) translate(-276.359776, -482.925850) translate(205.359776, 377.425850)" fill="url(#linearGradient-8)">
                        <path d="M112.40084,131.877144 C101.187904,123.656365 70.7380302,110.382598 74.6911548,92.6842409 C77.7503206,78.9626214 90.1816358,77.0727332 97.3044695,66.9526871 C103.256986,58.495086 98.6261829,48.9893707 95.5477922,40.0956416 C91.1597037,27.3986884 94.9638352,20.0900267 96.7229156,7.51500183 C96.8094277,6.91005004 93.8608053,6.86080978 93.687781,6.26523709 C92.0344377,22.9459619 86.3510701,33.8139911 79.1441274,41.2375467 C68.606467,52.093852 41.6651417,70.383092 45.7624533,96.6703573 C45.7624533,96.6703573 32.8769492,61.8082521 50.448528,28.6648666 C54.4593274,21.0959349 69.4860072,2.08919396 69.4860072,2.08919396 C69.4860072,2.08919396 65.6818757,0.651847272 65.6794726,0.658881595 C60.1162607,8.08947154 54.2694813,15.0534514 47.1154072,21.5742689 C39.2668327,28.7281755 26.7057492,31.6450748 22.7093685,41.4180943 C18.5423667,51.6272419 25.1028713,62.5445113 27.6165299,72.2237399 C31.4903517,87.1646421 26.410166,103.320137 30.3416626,118.661996 C34.5759517,135.19969 42.5158445,159.484518 32.4540009,176.535717 C22.4089791,193.563468 0.139309962,196.679673 0.0768289653,196.689052 C1.83110311,196.438162 9.92719844,203.134837 12.044343,203.981301 C22.322467,208.087001 28.9454526,202.077344 38.7477598,204.100884 C52.4238888,206.928682 63.2595355,214.441339 77.3946595,207.543013 C90.102333,201.34343 100.608753,190.749739 109.613226,188.683993 C118.615296,186.615902 132.452433,192.684178 135.381831,198.972863 C137.268276,203.019943 137.585488,204.940313 137.585488,204.940313 C140.067906,201.828798 141.550628,185.769438 141.697218,182.805643 C142.749782,161.318131 129.126522,144.145004 112.40084,131.877144 Z" id="Shape"></path>
                    </g>
                </g>
            </g>
        </g>
    </g>
</svg>